<mxfile host="app.diagrams.net" modified="2021-08-05T13:37:23.265Z" agent="5.0 (Macintosh; Intel Mac OS X 10_15_7) AppleWebKit/537.36 (KHTML, like Gecko) Chrome/90.0.4430.93 Safari/537.36" etag="GTz1qkLLZHJ8Ivr_SFjj" version="14.9.4" type="github">
  <diagram id="-04MJxCgii8V1juKe-Wr" name="Page-1">
    <mxGraphModel dx="1048" dy="655" grid="1" gridSize="10" guides="1" tooltips="1" connect="1" arrows="1" fold="1" page="1" pageScale="1" pageWidth="827" pageHeight="1169" math="0" shadow="0">
      <root>
        <mxCell id="0" />
        <mxCell id="1" parent="0" />
        <mxCell id="h3rpH7pl6p5MZ8tvlnKu-3" value="" style="edgeStyle=orthogonalEdgeStyle;rounded=0;orthogonalLoop=1;jettySize=auto;html=1;" edge="1" parent="1" source="h3rpH7pl6p5MZ8tvlnKu-1" target="h3rpH7pl6p5MZ8tvlnKu-2">
          <mxGeometry relative="1" as="geometry" />
        </mxCell>
        <mxCell id="h3rpH7pl6p5MZ8tvlnKu-4" value="show results" style="edgeLabel;html=1;align=center;verticalAlign=middle;resizable=0;points=[];" vertex="1" connectable="0" parent="h3rpH7pl6p5MZ8tvlnKu-3">
          <mxGeometry x="-0.0676" y="4" relative="1" as="geometry">
            <mxPoint as="offset" />
          </mxGeometry>
        </mxCell>
        <mxCell id="h3rpH7pl6p5MZ8tvlnKu-1" value="WinVC" style="rounded=1;whiteSpace=wrap;html=1;" vertex="1" parent="1">
          <mxGeometry x="350" y="420" width="120" height="60" as="geometry" />
        </mxCell>
        <mxCell id="h3rpH7pl6p5MZ8tvlnKu-2" value="labels" style="rounded=1;whiteSpace=wrap;html=1;" vertex="1" parent="1">
          <mxGeometry x="550" y="420" width="120" height="60" as="geometry" />
        </mxCell>
        <mxCell id="h3rpH7pl6p5MZ8tvlnKu-5" value="" style="edgeStyle=orthogonalEdgeStyle;rounded=0;orthogonalLoop=1;jettySize=auto;html=1;" edge="1" parent="1" source="h3rpH7pl6p5MZ8tvlnKu-7" target="h3rpH7pl6p5MZ8tvlnKu-8">
          <mxGeometry relative="1" as="geometry" />
        </mxCell>
        <mxCell id="h3rpH7pl6p5MZ8tvlnKu-6" value="configure" style="edgeLabel;html=1;align=center;verticalAlign=middle;resizable=0;points=[];" vertex="1" connectable="0" parent="h3rpH7pl6p5MZ8tvlnKu-5">
          <mxGeometry x="-0.0676" y="4" relative="1" as="geometry">
            <mxPoint y="14" as="offset" />
          </mxGeometry>
        </mxCell>
        <mxCell id="h3rpH7pl6p5MZ8tvlnKu-7" value="WinVC" style="rounded=1;whiteSpace=wrap;html=1;" vertex="1" parent="1">
          <mxGeometry x="350" y="540" width="120" height="60" as="geometry" />
        </mxCell>
        <mxCell id="h3rpH7pl6p5MZ8tvlnKu-8" value="share button" style="rounded=1;whiteSpace=wrap;html=1;" vertex="1" parent="1">
          <mxGeometry x="550" y="540" width="120" height="60" as="geometry" />
        </mxCell>
        <mxCell id="h3rpH7pl6p5MZ8tvlnKu-9" value="" style="endArrow=classic;html=1;entryX=1;entryY=0.25;entryDx=0;entryDy=0;exitX=0;exitY=0.25;exitDx=0;exitDy=0;" edge="1" parent="1" source="h3rpH7pl6p5MZ8tvlnKu-8" target="h3rpH7pl6p5MZ8tvlnKu-7">
          <mxGeometry width="50" height="50" relative="1" as="geometry">
            <mxPoint x="470" y="660" as="sourcePoint" />
            <mxPoint x="520" y="610" as="targetPoint" />
          </mxGeometry>
        </mxCell>
        <mxCell id="h3rpH7pl6p5MZ8tvlnKu-10" value="target/action" style="edgeLabel;html=1;align=center;verticalAlign=middle;resizable=0;points=[];" vertex="1" connectable="0" parent="h3rpH7pl6p5MZ8tvlnKu-9">
          <mxGeometry x="-0.04" relative="1" as="geometry">
            <mxPoint y="-15" as="offset" />
          </mxGeometry>
        </mxCell>
        <mxCell id="h3rpH7pl6p5MZ8tvlnKu-11" value="Controller" style="text;html=1;strokeColor=none;fillColor=none;align=center;verticalAlign=middle;whiteSpace=wrap;rounded=0;" vertex="1" parent="1">
          <mxGeometry x="390" y="350" width="40" height="20" as="geometry" />
        </mxCell>
        <mxCell id="h3rpH7pl6p5MZ8tvlnKu-12" value="View" style="text;html=1;strokeColor=none;fillColor=none;align=center;verticalAlign=middle;whiteSpace=wrap;rounded=0;" vertex="1" parent="1">
          <mxGeometry x="590" y="350" width="40" height="20" as="geometry" />
        </mxCell>
      </root>
    </mxGraphModel>
  </diagram>
</mxfile>
